<svg id="Layer_1" enable-background="new 0 0 512 512" height="512" viewBox="0 0 512 512" width="512" xmlns="http://www.w3.org/2000/svg"><g><path d="m426 56h-340c-16.57 0-30 13.43-30 30v340c0 16.57 13.43 30 30 30h340c16.57 0 30-13.43 30-30v-340c0-16.57-13.43-30-30-30zm-26 314c0 16.57-13.43 30-30 30h-228c-16.57 0-30-13.43-30-30v-228c0-16.57 13.43-30 30-30h228c16.57 0 30 13.43 30 30z" fill="#acebe2"/><path d="m142 112h228c16.569 0 30 13.431 30 30v228c0 16.569-13.431 30-30 30h-228c-16.569 0-30-13.431-30-30v-228c0-16.569 13.431-30 30-30z" fill="#e2e0e0"/><path d="m400 142v228c0 16.57-13.43 30-30 30h-40c16.57 0 30-13.43 30-30v-228c0-16.57-13.43-30-30-30h40c16.57 0 30 13.43 30 30z" fill="#cecccc"/><path d="m426 56h-40c16.57 0 30 13.43 30 30v340c0 16.57-13.43 30-30 30h40c16.57 0 30-13.43 30-30v-340c0-16.57-13.43-30-30-30z" fill="#98d7ce"/><path d="m496 208c8.837 0 16-7.164 16-16s-7.163-16-16-16h-24v-32h24c8.837 0 16-7.164 16-16s-7.163-16-16-16h-24v-26c0-25.364-20.636-46-46-46h-26v-24c0-8.836-7.163-16-16-16s-16 7.164-16 16v24h-32v-24c0-8.836-7.163-16-16-16s-16 7.164-16 16v24h-32v-24c0-8.836-7.163-16-16-16-8.836 0-16 7.164-16 16v24h-32v-24c0-8.836-7.164-16-16-16s-16 7.164-16 16v24h-32v-24c0-8.836-7.164-16-16-16s-16 7.164-16 16v24h-26c-25.364 0-46 20.636-46 46v26h-24c-8.836 0-16 7.164-16 16s7.164 16 16 16h24v32h-24c-8.836 0-16 7.164-16 16s7.164 16 16 16h24v32h-24c-8.836 0-16 7.164-16 16s7.164 16 16 16h24v32h-24c-8.836 0-16 7.164-16 16s7.164 16 16 16h24v32h-24c-8.836 0-16 7.164-16 16s7.164 16 16 16h24v26c0 25.364 20.636 46 46 46h26v24c0 8.836 7.164 16 16 16s16-7.164 16-16v-24h32v24c0 8.836 7.164 16 16 16s16-7.164 16-16v-24h32v24c0 8.836 7.164 16 16 16 8.837 0 16-7.164 16-16v-24h32v24c0 8.836 7.163 16 16 16s16-7.164 16-16v-24h32v24c0 8.836 7.163 16 16 16s16-7.164 16-16v-24h26c25.364 0 46-20.636 46-46v-26h24c8.837 0 16-7.164 16-16s-7.163-16-16-16h-24v-32h24c8.837 0 16-7.164 16-16s-7.163-16-16-16h-24v-32h24c8.837 0 16-7.164 16-16s-7.163-16-16-16h-24v-32zm-56 218c0 7.72-6.28 14-14 14h-340c-7.72 0-14-6.28-14-14v-340c0-7.72 6.28-14 14-14h340c7.72 0 14 6.28 14 14z"/><path d="m370 416h-228c-25.364 0-46-20.636-46-46v-228c0-25.364 20.636-46 46-46h228c25.364 0 46 20.636 46 46v228c0 25.364-20.636 46-46 46zm-228-288c-7.72 0-14 6.28-14 14v228c0 7.72 6.28 14 14 14h228c7.72 0 14-6.28 14-14v-228c0-7.72-6.28-14-14-14z"/><path d="m168.02 184c-8.836 0-16.005-7.164-16.005-16s7.158-16 15.995-16h.01c8.836 0 16 7.164 16 16s-7.164 16-16 16z"/><path d="m168.02 360c-8.836 0-16.005-7.164-16.005-16s7.158-16 15.995-16h.01c8.836 0 16 7.164 16 16s-7.164 16-16 16z"/><path d="m344.02 360c-8.836 0-16.005-7.164-16.005-16s7.159-16 15.995-16h.01c8.837 0 16 7.164 16 16s-7.164 16-16 16z"/><path d="m344.02 184c-8.836 0-16.005-7.164-16.005-16s7.159-16 15.995-16h.01c8.837 0 16 7.164 16 16s-7.164 16-16 16z"/></g></svg>