<svg id="Capa_1" enable-background="new 0 0 512 512" height="512" viewBox="0 0 512 512" width="512" xmlns="http://www.w3.org/2000/svg"><g><g><g><g><path d="m56.002 304.629-.001 130.369c0 8.284 6.716 15 15 15l69.999.001c8.284 0 15-6.716 15-15l.001-130.37z" fill="#f1f4f6"/><path d="m156.001 304.629h-49.999v145.369h34.997c8.284 0 15-6.716 15-15z" fill="#e2e2ea"/></g><path d="m490.673 271.875c-.903-4.239-3.597-7.879-7.385-9.984l-82.284-45.715.001-86.173c0-8.284-6.716-15-15-15-8.283 0-15 6.716-15 15l-.001 86.174-82.285 45.713c-3.789 2.104-6.482 5.745-7.386 9.984-.904 4.238.069 8.661 2.67 12.128l29.999 40c4.97 6.628 14.373 7.972 21 3 6.627-4.97 7.971-14.372 3-21l-19.68-26.241 67.682-37.6 67.679 37.602-19.681 26.24c-4.971 6.627-3.628 16.03 3 21 2.698 2.024 5.856 3.001 8.988 3.001 4.561 0 9.064-2.072 12.012-6l30.001-40c2.601-3.468 3.574-7.89 2.67-12.129z" fill="#f1f4f6"/><path d="m483.288 261.891-82.284-45.715.001-86.173c0-8.284-6.716-15-15-15-.001 0-.002 0-.003 0v127.16l.002-.001 67.679 37.602-19.681 26.24c-4.971 6.627-3.628 16.03 3 21 2.698 2.024 5.856 3.001 8.988 3.001 4.561 0 9.064-2.072 12.012-6l30.001-40c2.601-3.467 3.574-7.89 2.67-12.128-.903-4.241-3.597-7.881-7.385-9.986z" fill="#e2e2ea"/><path d="m351.006 55.001v55.001c0 19.33 15.67 35 35 35 19.33 0 34.999-15.67 35-34.999v-55.002z" fill="#0a617d"/><path d="m386.001 145.001h.004c19.33 0 34.999-15.67 35-34.999v-55.002h-35.004z" fill="#08475e"/><g><g><path d="m292.211 10c-1.183 0-2.348.279-3.401.816l-65.852 33.512c-1.055.537-1.968 1.315-2.664 2.273l-114.055 156.821c-2.436 3.349-1.696 8.037 1.651 10.475l48.502 35.312c1.29.939 2.838 1.437 4.414 1.437.389 0 .779-.03 1.168-.091 1.965-.31 3.728-1.388 4.897-2.997l112.897-155.228 14.256-7.33 121.981.001c20.711 0 37.5-16.789 37.5-37.5 0-20.711-16.789-37.5-37.5-37.5z" fill="#e2e2ea"/></g><g><g><path d="m266.006 110c-30.327 0-55-24.673-55-55s24.673-55 55-55 55 24.673 55 55-24.673 55-55 55z" fill="#ffe278"/></g></g><path d="m266.006 0v110c30.327 0 55-24.673 55-55s-24.673-55-55-55z" fill="#ffc178"/><g><g><path d="m266.006 70c-8.271 0-15-6.729-15-15s6.729-15 15-15 15 6.729 15 15-6.729 15-15 15z" fill="#0a617d"/></g></g></g><path d="m156.001 434.999-100-.001c-19.299 0-35 15.701-35 35l-.001 27.002h170l.001-27.001c0-19.299-15.701-35-35-35z" fill="#0a617d"/><path d="m191.001 469.999c0-19.299-15.701-35-35-35l-49.998-.001v62.002h84.997z" fill="#08475e"/><g><g><path d="m106.003 349.998c-41.355 0-75-33.645-75-75s33.645-75 75-75 75 33.645 75 75-33.645 75-75 75z" fill="#ffe278"/></g></g><g><path d="m181.003 274.998c0-41.355-33.645-75-75-75v150c41.355 0 75-33.645 75-75z" fill="#ffc178"/></g><circle cx="106.003" cy="274.998" fill="#0a617d" r="15"/><g><path d="m497 512h-482c-8.284 0-15-6.716-15-15s6.716-15 15-15h482c8.284 0 15 6.716 15 15s-6.716 15-15 15z" fill="#f1f4f6"/></g><g><path d="m446.001 450.001h-120c-8.284 0-15-6.716-15-15v-120c0-8.284 6.716-15 15-15h120c8.284 0 15 6.716 15 15v120c0 8.284-6.715 15-15 15z" fill="#f2ba23"/><path d="m446.001 300.001h-60v150h60c8.284 0 15-6.716 15-15v-120c0-8.284-6.715-15-15-15z" fill="#d89d1e"/><path d="m371.001 300.001v45c0 8.284 6.716 15 15 15s15-6.716 15-15v-45z" fill="#c48119"/><path d="m386.001 360.001c8.284 0 15-6.716 15-15v-45h-15z" fill="#936113"/></g></g><g><g><path d="m121.003 274.998c0-8.284-6.716-15-15-15v30c8.284 0 15-6.716 15-15z" fill="#08475e"/></g></g><g><path d="m497 482h-390.997v30h390.997c8.284 0 15-6.716 15-15s-6.716-15-15-15z" fill="#e2e2ea"/></g></g><path d="m266.006 40v30c8.271 0 15-6.729 15-15s-6.729-15-15-15z" fill="#08475e"/></g></svg>