<svg id="Layer_5" enable-background="new 0 0 64 64" height="512" viewBox="0 0 64 64" width="512" xmlns="http://www.w3.org/2000/svg"><g><g><path d="m57 32c0 .9-2.769 2-6 2-3.283 0-7.427-2.031-10.757-3.663-.426-.209-.841-.412-1.243-.606v-.731h-1v6l4 2v16l-3.602 1.801c1.211 4.16 5.052 7.199 9.602 7.199 5.523 0 10-4.477 10-10v-21z" fill="#f0bc5e"/></g><g><path d="m9 17h18v9h-18z" fill="#f0bc5e"/></g><g><g><path d="m30.44 54h-.88c-3.618 0-6.56-2.942-6.56-6.56 0-1.112.286-2.214.826-3.186l3.814-6.867c.476-.855 1.381-1.387 2.36-1.387s1.884.532 2.36 1.388l3.814 6.867c.54.972.826 2.073.826 3.185 0 3.618-2.942 6.56-6.56 6.56z" fill="#f0bc5e"/></g></g><g><path d="m3 40v13h10v-5h2v-8z" fill="#f0bc5e"/></g><g><path d="m59 1h-22c-2.206 0-4 1.794-4 4s1.794 4 4 4v24.382l-6-3v-16l-9.091-4.546c.058-.27.091-.549.091-.836 0-2.206-1.794-4-4-4s-4 1.794-4 4c0 .287.033.566.091.836l-8.091 4.046-4.418-2.209-.895 1.789 4.313 2.156v11.524c-1.72.447-3 1.999-3 3.858 0 2.206 1.794 4 4 4 1.2 0 2.266-.542 3-1.382l8 4v14.764l-11.447 5.723.895 1.789 11.552-5.776 11 5.5v3.378h2v-3.378l6.839-3.42c1.682 4.055 5.7 6.802 10.161 6.802 6.065 0 11-4.935 11-11v-43c2.206 0 4-1.794 4-4s-1.794-4-4-4zm-41 6c1.103 0 2 .897 2 2s-.897 2-2 2-2-.897-2-2 .897-2 2-2zm-12 26c-1.103 0-2-.897-2-2s.897-2 2-2 2 .897 2 2-.897 2-2 2zm1-5.858v-11.524l8-4c.734.84 1.8 1.382 3 1.382s2.266-.542 3-1.382l8 4v14.764l-11 5.5-8.091-4.045c.058-.271.091-.55.091-.837 0-1.859-1.28-3.411-3-3.858zm12 10.476 11-5.5 11 5.5v14.764l-11 5.5-11-5.5zm38-8.346c-1.684-.9-4.11-1.272-6-1.272-3.414 0-6.472 1.757-8.582 3.385.689.325 1.392.641 2.103.941 1.769-1.212 4.048-2.326 6.479-2.326 3.231 0 6 1.1 6 2v20c0 4.963-4.038 9-9 9-3.699 0-7.029-2.306-8.371-5.696l3.371-1.686v-9.802c.314.112.648.184 1 .184 1.654 0 3-1.346 3-3s-1.346-3-3-3c-.352 0-.686.072-1 .184v-1.802l-4-2v-25.382h18zm-14 11.728c0-.552.449-1 1-1s1 .448 1 1-.449 1-1 1-1-.448-1-1zm16-34h-22c-1.103 0-2-.897-2-2s.897-2 2-2h22c1.103 0 2 .897 2 2s-.897 2-2 2z"/><path d="m47 53c-1.654 0-3 1.346-3 3s1.346 3 3 3 3-1.346 3-3-1.346-3-3-3zm0 4c-.551 0-1-.448-1-1s.449-1 1-1 1 .448 1 1-.449 1-1 1z"/><path d="m52 49c1.654 0 3-1.346 3-3s-1.346-3-3-3-3 1.346-3 3 1.346 3 3 3zm0-4c.551 0 1 .448 1 1s-.449 1-1 1-1-.448-1-1 .449-1 1-1z"/><path d="m3 39h12v2h-12z"/><path d="m3 43h12v2h-12z"/><path d="m3 47h12v2h-12z"/><path d="m3 51h2v2h-2z"/><path d="m11 51h2v2h-2z"/><path d="m7 51h2v2h-2z"/><path d="m13 17h2v2h-2z"/><path d="m17 17h2v2h-2z"/><path d="m25 17h2v2h-2z"/><path d="m21 17h2v2h-2z"/><path d="m9 17h2v2h-2z"/><path d="m9 21h18v2h-18z"/><path d="m9 25h18v2h-18z"/></g></g></svg>