<svg id="Layer_1" enable-background="new 0 0 512 512" height="512" viewBox="0 0 512 512" width="512" xmlns="http://www.w3.org/2000/svg"><g><path d="m441 75h-370c-16.818 0-30.5 13.68-30.5 30.495v286.006c0 4.141 3.358 7.499 7.5 7.499s7.5-3.357 7.5-7.499v-286.006c0-8.545 6.953-15.497 15.5-15.497h370c8.547 0 15.5 6.952 15.5 15.497v286.006c0 4.141 3.358 7.499 7.5 7.499s7.5-3.357 7.5-7.499v-286.006c0-16.815-13.682-30.495-30.5-30.495z" fill="#43809f"/><g fill="#3a7190"><path d="m155.042 75.06c-4.142 0-7.5 3.358-7.5 7.5v140.922c0 4.142 3.358 7.5 7.5 7.5s7.5-3.358 7.5-7.5v-140.922c0-4.142-3.357-7.5-7.5-7.5z"/><path d="m216.853 75.06c-4.142 0-7.5 3.358-7.5 7.5v140.922c0 4.142 3.358 7.5 7.5 7.5s7.5-3.358 7.5-7.5v-140.922c0-4.142-3.358-7.5-7.5-7.5z"/><path d="m278.664 75.06c-4.142 0-7.5 3.358-7.5 7.5v140.922c0 4.142 3.358 7.5 7.5 7.5s7.5-3.358 7.5-7.5v-140.922c0-4.142-3.358-7.5-7.5-7.5z"/><path d="m382.401 201.033-42.996-120.985c-1.387-3.904-5.675-5.941-9.579-4.556-3.903 1.387-5.942 5.675-4.555 9.579l42.996 120.985c1.092 3.073 3.982 4.991 7.067 4.991.833 0 1.681-.14 2.511-.435 3.904-1.387 5.943-5.675 4.556-9.579z"/></g><path d="m475.115 403.249h-438.23v-41.227c0-1.669 1.353-3.021 3.021-3.021h432.186c1.669 0 3.021 1.353 3.021 3.021v41.227z" fill="#ffd54f"/><path d="m439.372 359v44.249h35.742v-41.233c0-1.665-1.355-3.016-3.027-3.016z" fill="#ffc328"/><circle cx="155.042" cy="251.509" fill="#a9dbf5" r="30.905"/><path d="m155.042 220.604c-5.631 0-10.906 1.514-15.453 4.145 9.235 5.344 15.453 15.323 15.453 26.761s-6.218 21.416-15.453 26.761c4.547 2.631 9.821 4.145 15.453 4.145 17.069 0 30.905-13.837 30.905-30.905s-13.836-30.907-30.905-30.907z" fill="#88c3e0"/><circle cx="216.853" cy="251.509" fill="#a9dbf5" r="30.905"/><path d="m216.853 220.604c-5.631 0-10.906 1.514-15.453 4.145 9.235 5.344 15.453 15.323 15.453 26.761s-6.218 21.416-15.453 26.761c4.547 2.631 9.821 4.145 15.453 4.145 17.069 0 30.905-13.837 30.905-30.905s-13.836-30.907-30.905-30.907z" fill="#88c3e0"/><circle cx="278.664" cy="251.509" fill="#a9dbf5" r="30.905"/><path d="m278.664 220.604c-5.631 0-10.906 1.514-15.453 4.145 9.235 5.344 15.453 15.323 15.453 26.761s-6.218 21.416-15.453 26.761c4.547 2.631 9.821 4.145 15.453 4.145 17.069 0 30.905-13.837 30.905-30.905s-13.836-30.907-30.905-30.907z" fill="#88c3e0"/><circle cx="383.742" cy="224.724" fill="#a9dbf5" r="30.905"/><path d="m383.742 193.819c-5.631 0-10.906 1.514-15.453 4.145 9.235 5.344 15.453 15.323 15.453 26.761s-6.218 21.416-15.453 26.761c4.547 2.631 9.822 4.145 15.453 4.145 17.069 0 30.905-13.837 30.905-30.905s-13.836-30.907-30.905-30.907z" fill="#88c3e0"/><path d="m507.887 437h-503.774c-2.272 0-4.113-1.841-4.113-4.113v-10.197c0-17.037 13.811-30.847 30.847-30.847h450.305c17.037 0 30.847 13.811 30.847 30.847v10.198c.001 2.271-1.84 4.112-4.112 4.112z" fill="#d67b42"/><path d="m481.095 391.842h-30.905c17.069 0 30.905 13.785 30.905 30.789v10.263c0 2.267-1.845 4.105-4.121 4.105h30.905c2.276 0 4.121-1.838 4.121-4.105v-10.263c0-17.004-13.837-30.789-30.905-30.789z" fill="#be652b"/></g></svg>